<svg xmlns="http://www.w3.org/2000/svg" viewBox="0 0 100 100" width="100" height="100">
  <!-- Left Wing -->
  <path d="M50 50 C30 30, 10 35, 15 55 C10 75, 35 85, 50 65" fill="#E50914" opacity="0.9"/>
  <path d="M50 50 C35 40, 25 42, 28 52 C25 62, 38 68, 50 58" fill="#0f1419" opacity="0.6"/>
  
  <!-- Right Wing -->
  <path d="M50 50 C70 30, 90 35, 85 55 C90 75, 65 85, 50 65" fill="#E50914" opacity="0.9"/>
  <path d="M50 50 C65 40, 75 42, 72 52 C75 62, 62 68, 50 58" fill="#0f1419" opacity="0.6"/>
  
  <!-- Body -->
  <ellipse cx="50" cy="55" rx="3" ry="12" fill="#0f1419"/>
  
  <!-- Antennae -->
  <path d="M48 44 Q45 38, 42 35" stroke="#0f1419" stroke-width="1.5" fill="none" stroke-linecap="round"/>
  <path d="M52 44 Q55 38, 58 35" stroke="#0f1419" stroke-width="1.5" fill="none" stroke-linecap="round"/>
  <circle cx="42" cy="35" r="1.5" fill="#E50914"/>
  <circle cx="58" cy="35" r="1.5" fill="#E50914"/>
</svg>